<svg width="45" height="45" viewBox="0 0 45 45" fill="none" xmlns="http://www.w3.org/2000/svg">
<path d="M22.5027 16.808C21.4527 16.808 20.6407 17.074 20.0527 17.62C19.5067 18.11 19.2407 18.726 19.2407 19.454C19.2407 19.986 19.3667 20.434 19.6187 20.798C19.8847 21.19 20.2767 21.484 20.8087 21.666V21.694C20.2767 21.82 19.8427 22.114 19.4787 22.562C19.0867 23.038 18.8907 23.598 18.8907 24.242C18.8907 25.124 19.1987 25.838 19.8147 26.37C20.4447 26.916 21.3407 27.196 22.5027 27.196C23.6507 27.196 24.5467 26.916 25.1907 26.37C25.8067 25.838 26.1147 25.124 26.1147 24.242C26.1147 23.598 25.9187 23.038 25.5267 22.562C25.1627 22.114 24.7147 21.82 24.1967 21.694V21.666C24.7147 21.484 25.1067 21.19 25.3867 20.798C25.6387 20.434 25.7647 19.986 25.7647 19.454C25.7647 18.726 25.4847 18.11 24.9527 17.62C24.3647 17.074 23.5387 16.808 22.5027 16.808ZM22.5027 17.746C23.2027 17.746 23.7627 17.928 24.1687 18.292C24.5047 18.6 24.6867 19.006 24.6867 19.496C24.6867 20 24.5327 20.42 24.2247 20.728C23.8467 21.092 23.2727 21.288 22.5027 21.288C21.7187 21.288 21.1447 21.092 20.7807 20.728C20.4727 20.42 20.3187 20 20.3187 19.496C20.3187 19.006 20.4867 18.6 20.8367 18.292C21.2287 17.928 21.7887 17.746 22.5027 17.746ZM22.5027 22.184C23.3007 22.184 23.9307 22.38 24.3787 22.786C24.7707 23.15 24.9807 23.64 24.9807 24.242C24.9807 24.83 24.7707 25.306 24.3787 25.67C23.9307 26.062 23.3147 26.258 22.5027 26.258C21.6907 26.258 21.0607 26.062 20.6407 25.684C20.2207 25.32 20.0247 24.83 20.0247 24.242C20.0247 23.64 20.2207 23.15 20.6407 22.786C21.0747 22.38 21.6907 22.184 22.5027 22.184Z" fill="black" fill-opacity="0.9"/>
<rect x="2" y="2" width="41" height="41" rx="12" fill="#ECF6F7"/>
<circle cx="22.5" cy="22.5" r="9.5" fill="#53CACA"/>
<path fill-rule="evenodd" clip-rule="evenodd" d="M26.9843 21.2071C27.3748 20.8166 27.3748 20.1834 26.9843 19.7929C26.5938 19.4024 25.9606 19.4024 25.5701 19.7929L21.3278 24.0352L19.2071 21.9144C18.8166 21.5239 18.1834 21.5239 17.7929 21.9144C17.4024 22.305 17.4024 22.9381 17.7929 23.3286L20.5972 26.133C20.6048 26.141 20.6125 26.149 20.6203 26.1569C20.76 26.2966 20.9308 26.3863 21.1104 26.426C21.4331 26.4978 21.7845 26.4081 22.0355 26.1571C22.0454 26.1472 22.055 26.1372 22.0643 26.1271L26.9843 21.2071Z" fill="white"/>
</svg>
