<svg width="45" height="45" viewBox="0 0 45 45" fill="none" xmlns="http://www.w3.org/2000/svg">
<path d="M18.6479 17.004V18.054H24.0379L20.3139 27H21.5319L25.2139 17.942V17.004H18.6479Z" fill="black" fill-opacity="0.9"/>
<rect x="2" y="2" width="41" height="41" rx="12" fill="#FFF7EA"/>
<path d="M22.454 21.308C22.146 21.77 21.656 22.414 21.222 22.918C20.97 22.68 20.746 22.456 20.578 22.302C21.334 21.322 21.992 20.23 22.482 19.138L21.712 18.62L21.474 18.676H19.78L20.634 18.032C20.34 17.542 19.738 16.828 19.164 16.31L18.212 16.982C18.73 17.486 19.29 18.172 19.57 18.676H16.798V19.852H20.76C19.766 21.644 18.044 23.464 16.406 24.458C16.644 24.71 16.994 25.326 17.12 25.676C17.792 25.2 18.478 24.626 19.136 23.954V29.106H20.438V23.562C21.138 24.318 21.978 25.312 22.384 25.858L23.168 24.864C22.972 24.64 22.468 24.136 21.936 23.618C22.398 23.17 22.93 22.624 23.434 22.12L22.454 21.308ZM25.548 20.79V16.268H24.148V29.078H25.548V21.63C26.626 22.512 27.858 23.576 28.502 24.304L29.538 23.324C28.768 22.512 27.172 21.252 26.01 20.384L25.548 20.79Z" fill="#C7986A"/>
</svg>
