<svg width="54" height="54" viewBox="0 0 54 54" fill="none" xmlns="http://www.w3.org/2000/svg">
<rect x="1" y="1" width="52" height="52" rx="12" fill="#DCF6F8"/>
<g filter="url(#filter0_d_1818_2651)">
<rect x="13" y="14" width="28" height="26" rx="4" fill="url(#paint0_linear_1818_2651)"/>
</g>
<path d="M13 18C13 15.7909 14.7909 14 17 14H37C39.2091 14 41 15.7909 41 18V21H13V18Z" fill="#1DB9C4"/>
<path fill-rule="evenodd" clip-rule="evenodd" d="M20.5 11C19.1193 11 18 12.1193 18 13.5V15.5C18 16.8807 19.1193 18 20.5 18C21.8807 18 23 16.8807 23 15.5V13.5C23 12.1193 21.8807 11 20.5 11ZM33.5 11C32.1193 11 31 12.1193 31 13.5V15.5C31 16.8807 32.1193 18 33.5 18C34.8807 18 36 16.8807 36 15.5V13.5C36 12.1193 34.8807 11 33.5 11Z" fill="#1B959D"/>
<path fill-rule="evenodd" clip-rule="evenodd" d="M32.5468 27.1464C33.1325 26.5607 33.1325 25.6109 32.5468 25.0251C31.961 24.4393 31.0112 24.4393 30.4254 25.0251L25.8288 29.6217L24.0607 27.8536C23.4749 27.2678 22.5251 27.2678 21.9393 27.8536C21.3536 28.4393 21.3536 29.3891 21.9393 29.9749L24.7678 32.8033C25.0619 33.0974 25.4478 33.2439 25.8333 33.2426C26.2159 33.2416 26.5981 33.0952 26.8899 32.8033L32.5468 27.1464Z" fill="#1B959D"/>
<defs>
<filter id="filter0_d_1818_2651" x="7" y="11" width="40" height="38" filterUnits="userSpaceOnUse" color-interpolation-filters="sRGB">
<feFlood flood-opacity="0" result="BackgroundImageFix"/>
<feColorMatrix in="SourceAlpha" type="matrix" values="0 0 0 0 0 0 0 0 0 0 0 0 0 0 0 0 0 0 127 0" result="hardAlpha"/>
<feOffset dy="3"/>
<feGaussianBlur stdDeviation="3"/>
<feComposite in2="hardAlpha" operator="out"/>
<feColorMatrix type="matrix" values="0 0 0 0 0.0757813 0 0 0 0 0.383873 0 0 0 0 0.404167 0 0 0 0.25 0"/>
<feBlend mode="multiply" in2="BackgroundImageFix" result="effect1_dropShadow_1818_2651"/>
<feBlend mode="normal" in="SourceGraphic" in2="effect1_dropShadow_1818_2651" result="shape"/>
</filter>
<linearGradient id="paint0_linear_1818_2651" x1="27" y1="14" x2="27" y2="40" gradientUnits="userSpaceOnUse">
<stop stop-color="#32DAE6"/>
<stop offset="1" stop-color="#16BCC7"/>
</linearGradient>
</defs>
</svg>
